<?xml version="1.0" standalone="no"?>
<!DOCTYPE svg PUBLIC "-//W3C//DTD SVG 20010904//EN"
 "http://www.w3.org/TR/2001/REC-SVG-20010904/DTD/svg10.dtd">
<svg version="1.0" xmlns="http://www.w3.org/2000/svg"
 width="269.000000pt" height="269.000000pt" viewBox="0 0 269.000000 269.000000"
 preserveAspectRatio="xMidYMid meet">
<metadata>
Created by potrace 1.11, written by Peter Selinger 2001-2013
</metadata>
<g transform="translate(0.000000,269.000000) scale(0.100000,-0.100000)"
fill="#000000" stroke="none">
<path d="M1473 2405 c0 -8 4 -12 9 -9 5 3 6 10 3 15 -9 13 -12 11 -12 -6z"/>
<path d="M1857 2376 c-15 -9 -36 -17 -45 -18 -9 -2 -23 -11 -31 -21 -9 -12
-22 -17 -37 -14 -20 3 -22 2 -13 -9 9 -11 8 -14 -2 -14 -24 0 -119 24 -119 31
0 3 -18 5 -40 3 -32 -2 -40 1 -40 14 0 11 -3 13 -8 6 -4 -6 -35 -12 -70 -12
-35 0 -66 -3 -69 -6 -3 -3 -12 2 -20 12 -9 11 -12 12 -11 3 2 -10 -9 -15 -37
-17 -22 -2 -49 -5 -60 -7 -11 -3 -26 1 -34 7 -11 8 -13 8 -7 -1 5 -9 0 -13
-16 -14 -13 -1 -39 -2 -58 -3 -19 -1 -39 -4 -45 -8 -22 -13 -70 -13 -67 0 1 8
-2 11 -8 7 -6 -3 -8 -10 -5 -15 3 -4 -3 -11 -13 -16 -30 -13 -66 -11 -101 7
-19 10 -38 16 -43 13 -4 -3 -8 -1 -8 3 0 12 -109 10 -134 -2 -30 -13 -82 -71
-84 -92 -2 -20 -2 -89 0 -113 1 -8 4 -17 7 -20 13 -11 32 -52 21 -45 -8 5 -7
0 1 -13 7 -12 17 -18 23 -15 5 3 6 1 2 -5 -3 -6 -2 -13 4 -17 5 -3 9 -17 8
-30 -2 -20 -5 -22 -17 -12 -12 10 -13 9 -3 -9 6 -12 7 -26 2 -35 -5 -7 -7 -22
-4 -33 5 -13 3 -16 -7 -11 -9 6 -11 3 -6 -8 3 -9 -1 -23 -9 -32 -14 -13 -14
-15 2 -15 16 0 16 -1 -2 -15 -14 -11 -16 -15 -4 -15 12 0 10 -4 -4 -15 -19
-14 -19 -15 -1 -15 18 0 18 -1 -1 -16 -10 -8 -14 -13 -7 -10 6 4 14 2 17 -3 3
-5 -1 -12 -10 -15 -11 -4 -13 -10 -5 -23 7 -13 5 -23 -7 -36 -15 -16 -15 -17
0 -12 17 7 19 -9 5 -32 -5 -8 -3 -13 7 -13 9 0 16 -5 16 -11 0 -5 -4 -8 -8 -5
-5 3 -7 -17 -4 -45 3 -37 1 -54 -9 -60 -12 -7 -12 -9 0 -9 11 0 10 -4 -5 -16
-10 -8 -14 -13 -9 -10 6 2 11 -4 11 -14 0 -10 -4 -16 -8 -14 -4 3 -10 -7 -14
-21 -3 -14 -11 -25 -16 -25 -6 0 -8 -7 -4 -15 3 -8 1 -15 -4 -15 -6 0 -10 -7
-10 -16 0 -11 -6 -15 -18 -12 -14 4 -17 -1 -17 -28 1 -18 -2 -31 -7 -28 -4 3
-8 -4 -8 -15 0 -12 -5 -21 -11 -21 -6 0 -9 -6 -6 -14 8 -21 -15 -26 -31 -7 -8
9 -11 11 -7 4 4 -9 -4 -12 -27 -11 -43 1 -78 -17 -78 -42 0 -11 4 -20 9 -20 5
0 12 -12 16 -28 12 -42 13 -62 2 -62 -5 0 -4 -7 3 -15 10 -12 10 -15 0 -15 -9
0 -10 -3 -1 -13 8 -10 7 -17 -1 -25 -9 -9 -9 -12 0 -12 10 0 10 -5 2 -20 -6
-11 -7 -20 -2 -20 10 0 9 -30 -2 -48 -4 -7 -2 -12 5 -12 10 0 10 -3 1 -12 -14
-14 -16 -32 -2 -23 11 7 6 -13 -15 -60 -22 -49 -28 -69 -26 -85 1 -8 -6 -3
-16 12 -9 15 -26 29 -37 31 -17 4 -205 2 -228 -2 -16 -3 -18 -42 -2 -66 13
-20 15 -39 10 -98 -3 -39 -8 -81 -10 -93 -2 -12 -7 -45 -11 -75 -4 -30 -8 -65
-10 -79 -4 -28 -19 -67 -36 -91 -17 -22 -5 -58 31 -97 24 -25 37 -31 58 -28
15 3 59 8 97 11 39 4 78 9 88 12 10 2 23 0 30 -5 24 -20 99 -18 120 3 10 9 45
17 99 21 281 21 295 21 321 -5 32 -29 129 -50 151 -32 9 8 16 24 16 37 0 13 3
24 8 25 4 0 31 2 60 3 50 3 55 1 81 -31 32 -39 48 -42 115 -23 33 9 51 20 59
37 10 21 16 23 101 24 99 2 111 1 171 -5 22 -2 78 -5 125 -7 72 -1 87 -5 99
-21 13 -20 58 -42 113 -59 33 -9 58 10 58 46 0 22 3 23 56 20 60 -4 78 -14
101 -58 14 -28 16 -29 71 -24 72 7 90 14 97 37 5 17 17 18 108 17 119 -2 156
11 199 72 31 44 41 113 26 170 -20 71 -111 178 -160 188 -32 6 -34 15 -11 53
15 26 15 30 -5 62 -38 62 -48 66 -147 65 l-90 -1 0 161 c0 134 3 164 16 179
19 22 15 38 -18 77 -13 16 -20 34 -17 39 4 7 2 8 -5 4 -6 -4 -17 -3 -24 2 -7
6 -15 11 -19 11 -5 1 -8 4 -7 7 0 3 -8 12 -18 21 -10 8 -13 12 -6 9 6 -4 14
-2 18 4 3 5 1 10 -6 10 -9 0 -9 3 0 14 9 11 9 15 -1 19 -10 4 -10 6 0 6 16 1
16 31 0 31 -9 0 -9 3 0 12 14 14 16 32 3 24 -5 -3 -6 8 -1 27 4 18 7 50 6 70
-1 20 3 37 8 37 6 0 1 7 -10 15 -10 8 -15 15 -10 15 5 0 2 8 -5 17 -8 9 -9 14
-3 10 7 -4 14 0 18 8 3 8 0 17 -6 21 -7 5 -8 2 -4 -7 4 -8 1 -6 -8 5 -12 14
-12 22 -3 37 9 14 9 21 -1 31 -16 16 -16 41 1 32 6 -4 3 2 -7 14 -11 12 -16
22 -13 22 3 0 0 18 -8 40 -8 22 -14 41 -14 43 0 1 -4 15 -10 30 -6 16 -8 33
-5 39 4 6 2 8 -3 5 -6 -4 -14 0 -17 9 -3 8 -2 12 3 9 5 -3 12 -1 16 5 3 5 -1
10 -10 10 -9 0 -13 5 -10 10 3 6 1 10 -5 10 -6 0 -8 5 -3 13 11 18 13 38 2 31
-5 -3 -6 -10 -3 -16 4 -7 2 -8 -5 -4 -6 4 -9 16 -6 27 4 11 0 26 -10 35 -14
15 -14 17 2 30 12 9 13 13 5 14 -7 0 -10 5 -7 10 4 6 12 7 18 3 7 -4 5 2 -3
12 -13 17 -13 18 0 13 15 -6 20 7 23 64 1 9 4 15 8 13 3 -2 6 22 6 53 1 71
-34 150 -74 173 -38 21 -140 24 -176 5z"/>
<path d="M1310 2371 c0 -6 4 -13 10 -16 6 -3 7 1 4 9 -7 18 -14 21 -14 7z"/>
<path d="M1695 2361 c-3 -5 -2 -12 3 -15 5 -3 9 1 9 9 0 17 -3 19 -12 6z"/>
<path d="M1173 2345 c0 -8 4 -12 9 -9 5 3 6 10 3 15 -9 13 -12 11 -12 -6z"/>
<path d="M970 2310 c0 -5 5 -10 11 -10 5 0 7 5 4 10 -3 6 -8 10 -11 10 -2 0
-4 -4 -4 -10z"/>
<path d="M675 1970 c-3 -5 -1 -10 4 -10 6 0 11 5 11 10 0 6 -2 10 -4 10 -3 0
-8 -4 -11 -10z"/>
<path d="M2115 1930 c3 -5 8 -10 11 -10 2 0 4 5 4 10 0 6 -5 10 -11 10 -5 0
-7 -4 -4 -10z"/>
<path d="M615 1790 c3 -5 8 -10 11 -10 2 0 4 5 4 10 0 6 -5 10 -11 10 -5 0 -7
-4 -4 -10z"/>
<path d="M597 1423 c-10 -9 -9 -23 1 -23 5 0 9 7 9 15 0 17 -1 18 -10 8z"/>
<path d="M2195 1381 c-3 -5 -2 -12 3 -15 5 -3 9 1 9 9 0 17 -3 19 -12 6z"/>
<path d="M561 1321 c-8 -5 -9 -11 -3 -15 5 -3 12 1 16 9 6 17 6 18 -13 6z"/>
<path d="M415 1251 c-3 -5 -2 -12 3 -15 5 -3 9 1 9 9 0 17 -3 19 -12 6z"/>
</g>
</svg>
